<?xml version="1.0" standalone="no"?>
<!DOCTYPE svg PUBLIC "-//W3C//DTD SVG 20010904//EN"
 "http://www.w3.org/TR/2001/REC-SVG-20010904/DTD/svg10.dtd">
<svg version="1.0" xmlns="http://www.w3.org/2000/svg"
 width="94.000000pt" height="103.000000pt" viewBox="0 0 94.000000 103.000000"
 preserveAspectRatio="xMidYMid meet">

<g transform="translate(0.000000,103.000000) scale(0.100000,-0.100000)"
fill="#000000" stroke="none">
<path d="M177 964 c-65 -20 -129 -84 -153 -155 -17 -47 -19 -85 -19 -304 1
-240 1 -252 24 -302 29 -66 83 -115 152 -139 47 -17 85 -19 289 -19 254 0 284
5 361 54 35 22 54 44 75 88 l29 58 3 248 c4 299 -3 335 -76 408 -73 72 -107
79 -396 78 -183 0 -253 -4 -289 -15z m579 -86 c92 -50 107 -112 102 -402 -3
-203 -4 -213 -28 -255 -45 -79 -68 -86 -337 -89 -260 -3 -299 2 -349 52 -50
50 -56 89 -52 354 3 217 5 240 23 272 22 37 68 68 118 81 18 4 136 7 262 6
196 -2 235 -5 261 -19z"/>
<path d="M686 804 c-34 -33 -9 -94 38 -94 28 0 56 29 56 57 0 44 -63 69 -94
37z"/>
<path d="M425 751 c-165 -42 -243 -216 -160 -357 65 -110 202 -151 315 -94 84
43 130 119 130 215 0 71 -23 126 -71 172 -56 52 -149 80 -214 64z m133 -108
c49 -37 67 -71 67 -128 0 -155 -205 -215 -285 -83 -45 74 -14 183 62 222 42
21 120 16 156 -11z"/>
</g>
</svg>
